<svg xmlns="http://www.w3.org/2000/svg" data-name="Layer 1" viewBox="0 0 68 68"><path fill="#f6c358" d="M9 3h50v62H9z"/><path d="M59 66H9a1 1 0 0 1-1-1V3a1 1 0 0 1 1-1h50a1 1 0 0 1 1 1v62a1 1 0 0 1-1 1zm-49-2h48V4H10z"/><path fill="#72bede" d="M15 7h38v12H15z"/><path d="M53 20H15a1 1 0 0 1-1-1V7a1 1 0 0 1 1-1h38a1 1 0 0 1 1 1v12a1 1 0 0 1-1 1zm-37-2h36V8H16z"/><rect width="8" height="4" x="16" y="24" fill="#e1e6e9" rx="1" ry="1"/><path d="M23 29h-6a2 2 0 0 1-2-2v-2a2 2 0 0 1 2-2h6a2 2 0 0 1 2 2v2a2 2 0 0 1-2 2zm-6-4v2h6v-2z"/><rect width="8" height="4" x="30.5" y="24" fill="#e1e6e9" rx="1" ry="1"/><path d="M37.5 29h-6a2 2 0 0 1-2-2v-2a2 2 0 0 1 2-2h6a2 2 0 0 1 2 2v2a2 2 0 0 1-2 2zm-6-4v2h6v-2z"/><rect width="8" height="4" x="45" y="24" fill="#e1e6e9" rx="1" ry="1"/><path d="M52 29h-6a2 2 0 0 1-2-2v-2a2 2 0 0 1 2-2h6a2 2 0 0 1 2 2v2a2 2 0 0 1-2 2zm-6-4v2h6v-2z"/><path fill="#e1e6e9" d="M17 34h6v6h-6z"/><path d="M23 41h-6a1 1 0 0 1-1-1v-6a1 1 0 0 1 1-1h6a1 1 0 0 1 1 1v6a1 1 0 0 1-1 1zm-5-2h4v-4h-4z"/><path fill="#e1e6e9" d="M17 44h6v6h-6z"/><path d="M23 51h-6a1 1 0 0 1-1-1v-6a1 1 0 0 1 1-1h6a1 1 0 0 1 1 1v6a1 1 0 0 1-1 1zm-5-2h4v-4h-4z"/><path fill="#e1e6e9" d="M17 54h6v6h-6z"/><path d="M23 61h-6a1 1 0 0 1-1-1v-6a1 1 0 0 1 1-1h6a1 1 0 0 1 1 1v6a1 1 0 0 1-1 1zm-5-2h4v-4h-4z"/><path fill="#e1e6e9" d="M31 34h6v6h-6z"/><path d="M37 41h-6a1 1 0 0 1-1-1v-6a1 1 0 0 1 1-1h6a1 1 0 0 1 1 1v6a1 1 0 0 1-1 1zm-5-2h4v-4h-4z"/><path fill="#e1e6e9" d="M31 44h6v6h-6z"/><path d="M37 51h-6a1 1 0 0 1-1-1v-6a1 1 0 0 1 1-1h6a1 1 0 0 1 1 1v6a1 1 0 0 1-1 1zm-5-2h4v-4h-4z"/><path fill="#e1e6e9" d="M31 54h6v6h-6z"/><path d="M37 61h-6a1 1 0 0 1-1-1v-6a1 1 0 0 1 1-1h6a1 1 0 0 1 1 1v6a1 1 0 0 1-1 1zm-5-2h4v-4h-4z"/><path fill="#e1e6e9" d="M45 34h6v6h-6z"/><path d="M51 41h-6a1 1 0 0 1-1-1v-6a1 1 0 0 1 1-1h6a1 1 0 0 1 1 1v6a1 1 0 0 1-1 1zm-5-2h4v-4h-4z"/><path fill="#e1e6e9" d="M45 44h6v6h-6z"/><path d="M51 51h-6a1 1 0 0 1-1-1v-6a1 1 0 0 1 1-1h6a1 1 0 0 1 1 1v6a1 1 0 0 1-1 1zm-5-2h4v-4h-4z"/><path fill="#e1e6e9" d="M45 54h6v6h-6z"/><path d="M51 61h-6a1 1 0 0 1-1-1v-6a1 1 0 0 1 1-1h6a1 1 0 0 1 1 1v6a1 1 0 0 1-1 1zm-5-2h4v-4h-4z"/></svg>